<svg xmlns="http://www.w3.org/2000/svg" width="50" height="50" viewBox="0 0 120 120"><defs><style>.cls-1{fill:#00b900;}.cls-2{fill:#fff;}</style></defs><title>LINE</title><g id="LINE_circle"><g><circle class="cls-1" cx="60" cy="60" r="60"/><g><g><path class="cls-2" d="M99.91,56.0734c0-17.8582-17.903-32.3871-39.91-32.3871-22.0043,0-39.9092,14.5289-39.9092,32.3871,0,16.01,14.1981,29.418,33.3768,31.9531,1.3.28,3.0687.8568,3.516,1.9681a8.198,8.198,0,0,1,.1291,3.6086s-.4681,2.816-.5695,3.4164c-.1738,1.0086-.8019,3.9462,3.4568,2.1514S82.9836,85.6376,91.3567,76h-.0018C97.1388,69.6573,99.91,63.2207,99.91,56.0734"/><g><path class="cls-1" d="M51,48H48.7774A.7775.7775,0,0,0,48,48.7774V66.2245A.7755.7755,0,0,0,48.7755,67h2.4471A.7775.7775,0,0,0,52,66.2226V48.7786A.7488.7488,0,0,0,51.2859,48"/><path class="cls-1" d="M71,48H67.7774A.7775.7775,0,0,0,67,48.7774V59.1418L59.1566,48.3463a.8038.8038,0,0,0-.0595-.079l-.0049-.005c-.0149-.0171-.03-.0329-.0459-.0481l-.0143-.0132c-.013-.012-.0266-.024-.0409-.0348l-.02-.0158c-.013-.0095-.0261-.019-.04-.0278l-.023-.0139c-.0136-.0082-.0272-.0164-.0409-.0234l-.0242-.012c-.0142-.0063-.0285-.0133-.044-.0189l-.0248-.0089c-.0149-.0057-.03-.0107-.0452-.0152l-.0267-.0069-.044-.01-.0323-.0044a.4.4,0,0,0-.04-.0051l-.04-.0025L58.52,48H55.7774A.7775.7775,0,0,0,55,48.7774V66.2245A.7755.7755,0,0,0,55.7755,67H59.222A.778.778,0,0,0,60,66.222V55.8964l7.8531,10.776a.7617.7617,0,0,0,.194.1915l.0081.0063c.0155.01.031.02.0471.029l.0217.012.0366.0182.0372.0158.0229.0088c.018.0063.0348.012.0521.017l.0112.0025A.736.736,0,0,0,68.48,67h2.7427A.7775.7775,0,0,0,72,66.2226V48.5438a.7768.7768,0,0,0-.7774-.7762"/><path class="cls-1" d="M45,63H38V48.7768A.7768.7768,0,0,0,37.2232,48H33.7774A.7775.7775,0,0,0,33,48.7774V66.2215a.7672.7672,0,0,0,.2218.5384l.011.012.0116.0107A.795.795,0,0,0,33.7922,67H45.2239A.7761.7761,0,0,0,46,66.2239V63.1322a.7767.7767,0,0,0-.7761-.7774"/><path class="cls-1" d="M87.2239,52A.7761.7761,0,0,0,88,51.2239V48.778A.778.778,0,0,0,87.222,48h-11.43a.7965.7965,0,0,0-.55.22l-.009.0082-.0129.0139a.7687.7687,0,0,0-.22.5372V66.2215a.7672.7672,0,0,0,.2218.5384l.011.012.0116.01a.7944.7944,0,0,0,.5478.218H87.2239A.7761.7761,0,0,0,88,66.2239V62.7774A.7775.7775,0,0,0,87.2226,62H79V59h8.2239A.7761.7761,0,0,0,88,58.2239V55.778A.778.778,0,0,0,87.222,55H79V52Z"/></g></g></g></g></g></svg>
