<svg id="topHead_news" xmlns="http://www.w3.org/2000/svg" width="166.406" height="68.813" viewBox="0 0 166.406 68.813">
  <defs>
    <style>
      .cls-1, .cls-2 {
        fill-rule: evenodd;
      }

      .cls-2 {
        fill: #fff;
      }
    </style>
  </defs>
  <path id="シェイプ_9" data-name="シェイプ 9" class="cls-1" d="M322.812,904.006l-6.8,40.8,40.4,15.2,14-7.6,72.8,8.4,39.2-15.2-5.2-40.4-69.2-13.2-22,8.8-10.8-6.4Z" transform="translate(-316 -892)"/>
  <path id="シェイプ_9_のコピー_2" data-name="シェイプ 9 のコピー 2" class="cls-2" d="M330.976,942.767l1.977-35.094,7.553,0.425,12.888,24.914,1.359-24.111,7.123,0.4L359.9,944.4l-7.457-.421-12.984-24.918L338.1,943.167Zm35.516,1.355-1.652-35.111,25.5-1.2,0.288,6.1-18.377.866,0.352,7.484,16.8-.79,0.282,6.006-16.8.791,0.425,9.034,19.236-.906,0.305,6.484Zm80.09-10.258,7.106-.653a6,6,0,0,0,2.743,4.05,9.664,9.664,0,0,0,5.76.872,8.264,8.264,0,0,0,4.626-1.552,3.789,3.789,0,0,0,1.289-3.448q-0.294-3.183-9.633-4.435c-0.081-.008-0.154-0.017-0.219-0.028-0.161-.017-0.412-0.05-0.751-0.1a23.094,23.094,0,0,1-7.207-1.758,7.783,7.783,0,0,1-3.122-2.936,10.807,10.807,0,0,1-1.409-4.652,9.4,9.4,0,0,1,2.75-8.148q3.219-3.04,9.777-3.642,6.131-.562,9.854,2.019a10.654,10.654,0,0,1,4.4,7.839l-6.915.634a5.09,5.09,0,0,0-2.3-3.694,8.211,8.211,0,0,0-5.136-.87,7.4,7.4,0,0,0-4.259,1.506,3.664,3.664,0,0,0-1.243,3.289q0.255,2.779,6.346,3.61l2.573,0.362q3.915,0.624,5.57,1.022a17.065,17.065,0,0,1,2.9.956,7.968,7.968,0,0,1,3.5,2.853,9.73,9.73,0,0,1,1.5,4.6,10.361,10.361,0,0,1-2.9,8.809q-3.407,3.345-10.108,3.959-6.606.607-10.641-2.112A11.458,11.458,0,0,1,446.582,933.864Zm-8.008,18.166-45.241-5.994,5.962-45,45.24,5.994Z" transform="translate(-316 -892)"/>
  <path id="シェイプ_9_のコピー" data-name="シェイプ 9 のコピー" class="cls-1" d="M404.913,941.953l-5.77-36.105,7.439,0.9,2.988,25.336,8.027-24,7.652,0.927,2.064,25.223,8.951-23.889,7.367,0.892-14.2,33.686-6.846-.829-2.164-27.375-8.661,26.064Z" transform="translate(-316 -892)"/>
</svg>
