<?xml version="1.0" encoding="UTF-8"?><svg id="_レイヤー_2" xmlns="http://www.w3.org/2000/svg" width="466.32" height="82.87" viewBox="0 0 466.32 82.87" style="fill: #fff;"><g id="_レイヤー_3"><path d="M462.52,32.74c.38-1.52-2.31-2.73-3.52-1.39-1.21-1.22-3.11.44-3.71.94,1.8,1.12,3.38.05,4.79.48,2.33.7,3.01,2.27,3.5,2.08.56-.22.66-1.71-1.07-2.11ZM452.89,26.81c-.86.96-.72,2.8.04,3.78.64.83,1.21,1.17,2.26,1.51,1.37-1.96,3.07-1.96,3.83-1.38.21-.51.72-.59,1.15-.47-.67-.75-.84-2.3-1.01-2.74-.41-1.07-1.35-2.01-2.12-2.16-1.66-.32-3,.16-4.15,1.46ZM461.42,39.06c.99,1.02,3.14-.76,1.91-2.35.63-.81-.55-2.3-1.01-2.16.27.79.4,2.23-.65,2.71-2.2,1.01-3.75-1.38-3.84-4.11-.67.65-1.21,3.56.39,3.97-.69,2.5,2.8,3.33,3.2,1.94ZM454.66,32.4c-.36-.19-1.99-1.3-2.36-2.15-.58.82.13,2.02.76,2.56,1.05.89,1.98.53,3.53,2.05,0-.48.4-1.2.93-1.73-1.08-.08-2.01-.27-2.87-.72ZM459.62,26.6c1.18.08,2.94-.65,2.05-2.06,1.23-1.04-.61-2.86-1.97-2.4-.46-1.55-2.21-1.21-2.65.43-.13.47.25,1.22-.31,2.4.96-.07,1.97.16,2.88,1.62ZM452.73,22.94c-1.71-.66-3.67,1.93-2.61,3.61.56.89,1.3,1.1,2,1.19.16-.57.66-1.71,1.68-2.35,1.1-.7,1.97-.42,2.59-.31.26-.41.28-1.59-.26-2.25-.69-.83-2.2-1.08-3.39.1ZM447.18,30.98c.52,1.09,1.24,1.73,2.3,1.27,1.59-.7,1.16-1.69,2.59-2-.49-.65-.41-1.54-.09-2.15-.65.15-1.19-.07-1.68-.34-.7-.38-1.51-.42-2.1-.09-1.5.81-2.43,3.02-1.01,3.32ZM449.87,34.61c.91,1.57,2.99-.35,2.54-1.48-.65-.33-.96-1.57-.7-2.42-.58.29-1.3,2.23-2.6,2.29-1.37-.31-.91,2.11.75,1.6ZM462.14,36.01c.19-.64.02-1.84-1.09-2.48-.65-.38-1.58-.33-2.81-.24-.1,2.45,1.68,3.57,2.35,3.61.62.03,1.38-.37,1.54-.88ZM453.14,60.63c-.78-.06-3.3-.31-3.57,1.39-1.76-.39-3.25,2.15-2.05,3.17-1.18,1.34-.23,2.48.36,2.34.51-.13.16-1.8,1.64-3.72.9-1.17,2.81-1.22,3.62-3.17ZM449.2,61.5c.29-.91,1.66-1.9,3.92-1.1.66-.89.93-1.5.96-2.54.04-1.24-.91-2.82-2.17-3.1-1.69-.38-3.06,0-4.23,1.23-.54.57-.76,1.88-.47,2.99.12.46.88,1.81.77,2.81.29-.35.75-.58,1.22-.29ZM453.56,66.25c1.06-1.27-1.07-3.32-1.99-3.46,1.52,2.27,1.65,5.12-.73,5.58-1.13.22-1.87-1.03-2.11-1.83-.46.15-.56,2.05.43,2.34-.07,2.01,2.71,2.21,2.93.8,1.13.9,3.49-1.8,1.48-3.44ZM451.8,62.58c.74.13,1.5.48,1.77.87.38-2.14,1.34-2.39,1.68-3.72.21-.8.08-2.19-.86-2.52.2.91-.48,2.76-.67,3.12-.43.87-1.08,1.56-1.91,2.25ZM447.72,55.5c-1.15-.64-1.27-1.47-1.65-1.78-1.32-1.08-2.94-.34-2.41,1.19-1.37.42-1.81,2.96-.21,3.1.09,1.66,1.95,1.24,2.86.48-.1-1.72.59-2.5,1.41-3ZM446.97,53.4c-.06.85.64,1.8,1.09,1.98.44-.45.98-1.19,2.29-1.25,1.2-.06,2.27.57,2.73.94.52-.49,1-1.09.94-2.13-.12-1.99-3.22-2.95-4.23-1.42-1.66-.27-2.74.81-2.82,1.89ZM456.23,52.71c-.67.09-1.31.58-1.66,1.3-.25.5-.56,1-1.17,1.26.61.3,1.2.98,1.18,1.8,1.35-.58,1.57.48,3.27.13,1.13-.24,1.34-1.17,1.14-2.37.98-1.07-1.06-2.34-2.75-2.12ZM458.9,59.36c1.64-.55.61-2.79-.32-1.74-1.09.7-2.8-.46-3.44-.36.71.54,1.18,1.73.84,2.37.29,1.18,3.1,1.53,2.93-.28ZM449.17,64.97c-.53,1.17.03,2.24.56,2.65.43.33,1.28.21,1.77-.18.53-.42,1.32-2.37-.18-4.3-1.05.64-1.83,1.14-2.14,1.82ZM445.4,49.09c.31-.66.66-2.9-.47-3.82,2.47.39,3.69-.59,4-.81.19-.32.55-1.04.74-1.48-1.29,1.01-2.68,1.89-4.62,1.56.24-.81.99-2.16-.29-3.55-.5-.54-1.26-.98-2.33-1.16-.24-.04-1.29-.13-1.7-.36.25.6.26,2.3.83,3.35.36.66,1.23,1.44,1.91,1.78-.53.33-3-2.22-5.78-1.45-1.23.34-2,1.38-2.53,1.87-.01.01-.02.02-.04.04-.21.19-.41.33-.61.36.62.46,1.31,1.25,2.16,1.8.54.35,1.15.59,1.84.59,3.16-.03,3.6-2.28,5.3-2.24-1.1.48-1.95,1.37-2.4,2.07-.39.61-.54,1.24-.46,1.84.17,1.28.94,2.13,1.01,2.38.36-.51,2.33-.41,3.44-2.75ZM438.52,47.33c-.96-.07-2.02-1.07-2.53-1.58,1.19.45,4.73.41,6.09-.07-.71.64-1.98,1.76-3.56,1.65ZM435.93,45.38c.29-.45,1.09-1.46,1.93-1.74,1.76-.6,4.27.98,4.76,1.37-2.08.74-4.88.82-6.69.37ZM444.42,41.31c.73.76.56,1.84.02,2.52-.4-1.12-1.06-2.38-2.38-3.41.71.02,1.66.15,2.36.89ZM442.12,42.69c-.42-.67-.55-1.44-.58-2.08,1.49.92,2.27,2.05,2.52,3.56-.65-.18-1.54-.84-1.94-1.48ZM441.49,48.95c-.02-1.13,1.36-2.66,2.7-2.86-.11,1.56-.97,3.5-2,4.55-.41-.29-.69-.95-.7-1.69ZM442.84,50.69c.67-1.01,1.57-2.82,1.93-4.44.55.54.7,1.69.22,2.7-.64,1.35-1.38,1.65-2.16,1.74ZM411.52,8.31c1.91,1.75,4.5,1.94,5.7,1.33-.36-.19-.8-.57-.95-.78-1.09.5-3.17.23-4.1-.89.8-.29,2.32-.48,2.69-2.34.14-.72.04-1.59-.45-2.57-.11-.22-.66-1.11-.72-1.58-.34.55-1.69,1.57-2.2,2.66-.32.68-.43,1.85-.3,2.59-.58-.23,0-3.73-2.26-5.51-1.01-.79-2.3-.79-3.01-.93-.02,0-.04,0-.05,0-.28-.06-.5-.13-.65-.28,0,.77-.23,1.8-.17,2.8.04.64.2,1.28.62,1.83,1.9,2.53,3.97,1.55,4.95,2.94-1.04-.6-2.26-.76-3.09-.71-.72.05-1.32.3-1.75.72-.92.9-1.16,2.02-1.31,2.23.62-.02,1.7,1.63,4.25,1.14.72-.14,2.72-1.19,2.8-2.64ZM413.73,3.13c.41.58.86,1.43.68,2.43-.18,1.04-1.15,1.54-2.02,1.51.67-.99,1.29-2.26,1.33-3.94ZM411.94,4.53c.29-.73.84-1.3,1.33-1.7.14,1.74-.3,3.04-1.37,4.14-.24-.63-.24-1.73.04-2.44ZM406.06,4.38c-.52-.82-.34-2.26-.23-2.98.34,1.22,2.47,4.05,3.66,4.86-.93-.19-2.59-.55-3.43-1.89ZM406.1,1.13c.53-.03,1.82.01,2.55.52,1.52,1.06,1.75,4.02,1.71,4.65-1.83-1.24-3.55-3.45-4.26-5.17ZM406.52,7.72c.9-.68,2.94-.48,3.91.48-1.32.84-3.4,1.29-4.85,1.09,0-.5.35-1.12.94-1.57ZM408.6,10.55c-1.47.29-2.14-.13-2.68-.71,1.21-.06,3.2-.41,4.72-1.07-.11.76-.95,1.56-2.04,1.78ZM451.48,6.42c.32.42.48.74.67,1.11.46.32,2.14.43,3.48.31-.87,1.17.01,3.25.48,3.82,1.65,1.99,3.54,1.41,4.01,1.82.02-.26.55-1.28.4-2.56-.07-.61-.37-1.18-.89-1.67-.61-.57-1.64-1.22-2.83-1.42,1.63-.45,2.62,1.62,5.69.87.67-.16,1.2-.55,1.64-1.02.69-.74,1.16-1.68,1.65-2.27-.21.03-.43-.06-.68-.19-.02,0-.03-.02-.05-.02-.63-.35-1.63-1.17-2.91-1.19-2.88-.06-4.66,3.01-5.25,2.83.58-.49,1.23-1.47,1.42-2.19.29-1.16-.11-2.81-.01-3.45-.34.33-1.34.66-1.56.76-1,.44-1.63,1.05-1.98,1.7-.9,1.67.16,2.79.59,3.52-1.8.18-2.85-.35-3.86-.75ZM462.35,8.28c-1.51.49-3.01-.28-3.85-.73,1.44.13,4.88-.7,5.92-1.43-.37.62-1.15,1.85-2.07,2.15ZM462.08,4.53c.89.07,1.91.85,2.3,1.22-1.64.87-4.38,1.49-6.57,1.28.37-.5,2.42-2.65,4.27-2.5ZM456.47,11.44c-.71-.86-.84-2.02-.45-2.67.75,1.48,2.07,3.02,2.96,3.83-.78.1-1.57,0-2.52-1.16ZM459.87,10.57c.17.73.06,1.43-.27,1.81-1.25-.77-2.57-2.43-3.06-3.92,1.36-.13,3.07,1.01,3.33,2.11ZM457.72,4.66c-.23.73-.93,1.58-1.52,1.91-.13-1.53.36-2.81,1.57-4.07.12.63.19,1.41-.05,2.16ZM455.15,3.88c.5-.89,1.39-1.25,2.07-1.44-1.03,1.32-1.36,2.7-1.47,3.89-.69-.53-1.12-1.53-.6-2.45ZM441.76,25.5c-.71,1.06-.6,2.35-.67,3.07,0,.02,0,.03,0,.05-.03.28-.09.52-.23.67.77-.06,1.81.08,2.81-.07.64-.09,1.25-.31,1.77-.76,2.36-2.1,1.88-4.18,2.25-4.95.33-.68.75-1.22,1.06-1.5.79-.72,1.56-1.66,1.64-2.71-.07-.31-.25-1.08-.44-1.43-.21,1.2-.69,2.82-1.72,3.84-.35-.77-.67-2.27-2.56-2.48-.73-.08-1.59.09-2.52.66-.21.13-1.05.75-1.52.85.58.29,1.71,1.56,2.83,1.97.7.26,1.88.28,2.61.08-.18.59-3.72.3-5.31,2.71ZM441.91,28.34c-.08-.53-.14-1.82.31-2.58.94-1.61,3.87-2.08,4.49-2.09-1.08,1.92-3.14,3.82-4.79,4.68ZM445.15,28.11c-.77.58-2.22.52-2.95.48,1.19-.44,3.83-2.8,4.54-4.06-.12.94-.33,2.62-1.6,3.58ZM445.63,19.69c1.06.09,1.63,1.02,1.67,1.88-1.04-.58-2.36-1.09-4.03-1,.54-.45,1.35-.98,2.36-.88ZM444.81,22.24c-.76-.23-1.36-.73-1.81-1.18,1.72-.28,3.06.05,4.24,1.02-.61.29-1.7.38-2.44.16ZM418.63,11.15c-.4.14-1.02.41-1.77.49-.85.09-2.64-1.07-5.42.44-.6.33-1.01.84-1.32,1.41-.48.89-.69,1.92-1.01,2.62.19-.08.43-.05.71.01.02,0,.03,0,.05.01.7.17,1.88.71,3.12.41,2.8-.68,3.73-4.11,4.35-4.08-.44.62-.82,1.74-.81,2.48.01,1.2.82,2.69.9,3.33.25-.4,1.12-.98,1.31-1.14.85-.69,1.3-1.43,1.48-2.15.44-1.84-.87-2.66-1.47-3.25.75-.2,2.08.53,3.02-.04-.57-.17-1.49-.38-1.83-.67-.32-.06-.9-.02-1.3.12ZM411.68,12.47c1.33-.87,2.98-.5,3.91-.29-1.42.25-4.54,1.93-5.36,2.9.2-.7.64-2.08,1.45-2.61ZM412.9,16.02c-.87.16-2.07-.33-2.53-.59,1.36-1.27,3.85-2.56,6.02-2.93-.23.58-1.66,3.18-3.49,3.52ZM417.59,16.87c-.28-.57-.54-1.31-.5-2.1.04-.76.49-1.77.98-2.24.52,1.45.38,2.81-.47,4.34ZM419.77,14.87c-.26.98-1.02,1.57-1.63,1.92.66-1.54.62-2.96.43-4.13.8.33,1.48,1.19,1.2,2.21ZM465.98,70.57s0-.03-.02-.05c-.21-.69-.34-1.98-1.23-2.9-2-2.07-5.43-1.13-5.72-1.68.76.06,1.91-.18,2.55-.56,1.03-.62,1.9-2.07,2.42-2.46-.48,0-1.42-.47-1.65-.56-1.02-.39-1.89-.4-2.6-.18-1.81.55-1.85,2.09-2.05,2.91-1.2-.81-2.02-3.19-1.83-4.63-.25.2-.61.91-.73,1.19-.23,1.67,1.25,3.27,2.29,4.13-1.44.22-2.28,2.32-2.34,3.05-.23,2.58,1.52,3.49,1.57,4.11.19-.17,1.29-.52,2.08-1.53.38-.48.57-1.09.54-1.81-.03-.83-.31-2.03-1.01-3,1.48.83.72,2.99,3.43,4.62.59.35,1.24.45,1.88.42,1.01-.04,2.01-.37,2.77-.45-.16-.13-.26-.34-.35-.62ZM456.45,71.51c-.63-.48-1.11-1.1-.98-2.6.1-1.11.82-2.03,1.56-2.21-.51,1.58-.66,3.6-.59,4.81ZM458.51,70.69c-.39.64-.96,1.06-1.46,1.1-.35-1.42-.11-3.53.59-4.94,1.06.87,1.46,2.88.88,3.84ZM458.57,64.78c-.12-.86.28-1.87,1.3-2.16.98-.28,1.87.09,2.49.43-1.66.22-2.86.96-3.78,1.72ZM462.69,63.49c-.35.53-.86,1.13-1.56,1.5-.68.35-1.77.47-2.42.29.98-1.18,2.23-1.75,3.98-1.79ZM461.88,70.81c-1.42-.71-1.94-2.32-2.23-3.23.93,1.1,3.96,2.94,5.21,3.15-.7.18-2.12.5-2.98.07ZM459.53,66.73c.62-.1,3.58-.18,4.8,1.23.58.67.76,1.95.78,2.48-1.78-.53-4.16-2.02-5.58-3.71ZM421.96,6.76c.2-.08.74.48.84.21.09-.23.53-.73.77-.81,4.12-1.42,9.06-1.88,13.73-.83.32.07.5.95.73.76.24-.2,1.1-.27,1.41-.16.94.3,1.85.67,2.72,1.11,3.79,1.9,8.46,6.89,9.37,15.15.32-.16.76-.19,1.07-.09-.48-4.28-1.93-7.68-3.76-10.27-.29-.41-.44-1.12-.34-1.44.09-.29-.91-.24-1.23-.57-1.45-1.5-3.25-2.81-4.67-3.52-4.57-2.29-9.82-2.79-14.52-2.13-.58.08-1.31-.12-1.86-.28-.22-.06-.56.64-1.1.79-1.94.53-5.62,2.16-7.1,3.03.32.13.73.41,1.01.63.97-.63,1.76-1.08,2.93-1.57ZM448.5,50.84c.22-.09.5-.25.92-.13-.28-.66-.28-1.67-.06-2.43.12-.4.54-.63.76-.85.22-.22-.33-.68-.25-1.01.53-2.35,2.71-5.27,4.13-5.4-.06-.32-.35-.76-.38-1.17-.51.23-1.42,1.01-1.83,1.39-.21.26-.79.03-.88.28-.09.25-.05.89-.17,1.08-1.58,2.48-2.78,6.1-2.23,8.23ZM454.53,51.79c1.03-2.23,1.45-4.37,1.52-6.31,0-.28.28-.69.47-.85.21-.18-.47-.52-.49-.79-.1-1.66-.43-3.14-.79-4.36-.49-1.66-.86-3.41-.52-4.64-.27-.17-.76-.47-1.01-.69-.13.5-.28,1.17-.25,1.7.02.26-.63.76-.47,1.04.15.26.74.58.8.88.13.69.47,1.53.65,2.15.59,1.99,1.55,6.91-.57,11.08.28.09.54.47.66.79ZM444.45,3.5c.32.11.34.93.59.82.21-.09.83-.25,1.07-.13.87.44,1.71.97,2.47,1.6,1.7,1.41,5.22,5.18,3.2,9.74.13.36.34.82.5,1.24.34-.48.67-1.39.84-2.13.04-.19.44-.69.65-.84.22-.15-.46-.66-.46-.93-.04-3.12-1.82-5.99-4.09-7.87-1.75-1.45-4.64-2.54-7.32-2.86-.29-.04-.6-.26-.82-.48-.17-.17-.56.44-.8.44-1.94-.02-3.55.37-4.67,1.35.57.08,1.07.23,1.45.29,1.58-1.22,5.07-1.04,7.39-.25ZM434.12,5.56c-1.06,1.93-3.47,3.92-6.43,4.65-.23.06-.68-.08-.85-.26-.23-.23-.55.52-.8.55-4.04.39-8.84-1.91-10.52-4.33-.1.25-.29.69-.48.95,2.1,2.57,6.94,4.61,11.31,4.19,1.7-.16,3.12-.76,4.24-1.37.17-.1.61-.04.86.11.28.16.68-.92.92-1.09,1.31-.95,2.35-2.07,2.95-3.18-.36-.13-.86-.15-1.2-.21Z"/><path d="M2.73,34.85c.49.19,1.17-1.37,3.5-2.08,1.41-.43,2.99.64,4.79-.48-.6-.5-2.5-2.17-3.71-.94-1.21-1.34-3.9-.13-3.52,1.39-1.73.4-1.63,1.89-1.07,2.11ZM9.28,25.35c-.77.15-1.71,1.09-2.12,2.16-.17.44-.34,1.99-1.01,2.74.44-.12.95-.04,1.15.47.76-.57,2.46-.58,3.83,1.38,1.05-.34,1.62-.68,2.26-1.51.76-.98.89-2.82.04-3.78-1.15-1.29-2.49-1.77-4.15-1.46ZM8.1,37.12c1.6-.42,1.06-3.32.39-3.97-.08,2.73-1.64,5.13-3.84,4.11-1.05-.48-.92-1.92-.65-2.71-.46-.14-1.64,1.35-1.01,2.16-1.22,1.59.93,3.37,1.91,2.35.4,1.39,3.88.56,3.2-1.94ZM8.8,33.12c.53.53.94,1.26.93,1.73,1.55-1.52,2.48-1.16,3.53-2.05.64-.53,1.34-1.74.76-2.56-.37.85-1.99,1.96-2.36,2.15-.86.45-1.79.65-2.87.72ZM9.59,24.98c-.56-1.19-.18-1.93-.31-2.4-.44-1.65-2.19-1.98-2.65-.43-1.36-.45-3.2,1.36-1.97,2.4-.89,1.41.87,2.14,2.05,2.06.92-1.46,1.93-1.69,2.88-1.62ZM10.21,22.84c-.55.66-.53,1.83-.26,2.25.62-.11,1.49-.39,2.59.31,1.01.64,1.52,1.79,1.68,2.35.7-.09,1.44-.31,2-1.19,1.06-1.69-.91-4.27-2.61-3.61-1.2-1.18-2.7-.93-3.39-.1ZM18.14,27.66c-.6-.32-1.4-.29-2.1.09-.5.27-1.04.49-1.68.34.32.6.41,1.49-.09,2.15,1.43.31,1,1.31,2.59,2,1.06.46,1.77-.17,2.3-1.27,1.42-.3.5-2.52-1.01-3.32ZM17.19,33.01c-1.3-.06-2.01-2-2.6-2.29.27.85-.04,2.09-.7,2.42-.45,1.13,1.64,3.04,2.54,1.48,1.66.5,2.12-1.92.75-1.6ZM5.72,36.9c.68-.03,2.45-1.16,2.35-3.61-1.22-.09-2.15-.14-2.81.24-1.11.64-1.28,1.84-1.09,2.48.16.51.92.91,1.54.88ZM16.81,63.8c1.49,1.93,1.13,3.6,1.64,3.72.58.14,1.53-1,.36-2.34,1.2-1.02-.29-3.56-2.05-3.17-.27-1.7-2.79-1.44-3.57-1.39.81,1.95,2.72,2,3.62,3.17ZM18.34,61.79c-.11-1,.65-2.36.77-2.81.28-1.11.07-2.42-.47-2.99-1.17-1.22-2.54-1.61-4.23-1.23-1.25.28-2.21,1.86-2.17,3.1.04,1.05.3,1.66.96,2.54,2.26-.79,3.63.19,3.92,1.1.46-.3.93-.07,1.22.29ZM14.24,69.69c.21,1.4,2.99,1.2,2.93-.8.99-.29.89-2.19.43-2.34-.24.8-.97,2.05-2.11,1.83-2.38-.46-2.25-3.31-.73-5.58-.92.14-3.05,2.19-1.99,3.46-2.01,1.64.35,4.34,1.48,3.44ZM12.61,60.33c-.19-.37-.87-2.21-.67-3.12-.95.33-1.07,1.72-.86,2.52.34,1.34,1.31,1.59,1.68,3.72.27-.39,1.03-.75,1.77-.87-.83-.69-1.48-1.39-1.91-2.25ZM20.01,58.5c.91.75,2.77,1.18,2.86-.48,1.61-.13,1.17-2.67-.21-3.1.53-1.53-1.09-2.27-2.41-1.19-.38.31-.5,1.13-1.65,1.78.82.5,1.51,1.27,1.41,3ZM16.53,51.51c-1-1.53-4.11-.57-4.23,1.42-.06,1.04.42,1.65.94,2.13.46-.37,1.53-1,2.73-.94,1.31.07,1.85.8,2.29,1.25.45-.19,1.15-1.13,1.09-1.98-.08-1.08-1.16-2.16-2.82-1.89ZM7.34,54.84c-.21,1.19,0,2.13,1.14,2.37,1.7.36,1.92-.7,3.27-.13-.02-.82.56-1.5,1.18-1.8-.61-.26-.92-.75-1.17-1.26-.35-.72-.99-1.22-1.66-1.3-1.69-.21-3.73,1.05-2.75,2.12ZM10.36,59.63c-.35-.65.13-1.84.84-2.37-.64-.1-2.35,1.06-3.44.36-.93-1.05-1.97,1.18-.32,1.74-.17,1.81,2.64,1.46,2.93.28ZM15.01,63.14c-1.5,1.94-.71,3.88-.18,4.3.49.38,1.34.5,1.77.18.53-.41,1.08-1.48.56-2.65-.31-.69-1.09-1.19-2.14-1.82ZM24.36,51.84c.08-.25.84-1.1,1.01-2.38.08-.6-.07-1.23-.46-1.84-.45-.7-1.3-1.59-2.4-2.07,1.69-.04,2.14,2.21,5.3,2.24.69,0,1.3-.24,1.84-.59.85-.55,1.54-1.34,2.16-1.8-.21-.03-.4-.16-.61-.36-.01-.01-.03-.03-.04-.04-.53-.49-1.29-1.53-2.53-1.87-2.78-.76-5.25,1.78-5.78,1.45.68-.33,1.56-1.12,1.91-1.78.57-1.05.59-2.75.83-3.35-.41.23-1.46.32-1.7.36-1.08.18-1.83.62-2.33,1.16-1.28,1.39-.53,2.74-.29,3.55-1.94.34-3.33-.55-4.62-1.56.19.44.55,1.17.74,1.48.32.22,1.54,1.2,4,.81-1.13.92-.78,3.16-.47,3.82,1.11,2.34,3.08,2.23,3.44,2.75ZM24.25,45.69c1.36.48,4.9.52,6.09.07-.51.51-1.57,1.51-2.53,1.58-1.58.11-2.85-1.01-3.56-1.65ZM23.7,45.01c.48-.4,3-1.97,4.76-1.37.84.29,1.64,1.3,1.93,1.74-1.8.45-4.61.37-6.69-.37ZM24.26,40.42c-1.32,1.03-1.98,2.29-2.38,3.41-.54-.68-.72-1.76.02-2.52.7-.73,1.65-.87,2.36-.89ZM22.26,44.18c.25-1.52,1.04-2.64,2.52-3.56-.03.64-.16,1.41-.58,2.08-.41.65-1.29,1.31-1.94,1.48ZM24.13,50.64c-1.03-1.05-1.89-2.99-2-4.55,1.35.21,2.72,1.74,2.7,2.86,0,.74-.29,1.4-.7,1.69ZM21.32,48.96c-.48-1.01-.32-2.16.22-2.7.36,1.62,1.26,3.43,1.93,4.44-.78-.09-1.52-.38-2.16-1.74ZM57.59,10.96c2.55.49,3.63-1.16,4.25-1.14-.15-.21-.39-1.33-1.31-2.23-.44-.42-1.03-.67-1.75-.72-.83-.05-2.05.1-3.09.71.97-1.38,3.05-.41,4.95-2.94.41-.55.57-1.19.62-1.83C61.32,1.8,61.09.77,61.09,0c-.15.15-.37.22-.65.28-.02,0-.04,0-.05,0-.71.14-2,.14-3.01.93-2.26,1.78-1.68,5.28-2.26,5.51.14-.75.02-1.91-.3-2.59-.51-1.08-1.87-2.1-2.2-2.66-.06.47-.61,1.36-.72,1.58-.49.98-.59,1.84-.45,2.57.36,1.86,1.89,2.05,2.69,2.34-.93,1.11-3,1.39-4.1.89-.15.21-.59.59-.95.78,1.2.61,3.79.42,5.7-1.33.07,1.45,2.08,2.5,2.8,2.64ZM53.92,7.06c-.87.03-1.84-.47-2.02-1.51-.18-1,.28-1.85.68-2.43.04,1.67.67,2.95,1.33,3.94ZM54.43,6.97c-1.07-1.1-1.51-2.4-1.37-4.14.49.4,1.04.97,1.33,1.7.28.71.29,1.81.04,2.44ZM56.83,6.26c1.19-.81,3.32-3.64,3.66-4.86.11.72.29,2.16-.23,2.98-.85,1.34-2.51,1.7-3.43,1.89ZM55.96,6.3c-.03-.63.19-3.58,1.71-4.65.73-.51,2.02-.56,2.55-.52-.71,1.72-2.44,3.93-4.26,5.17ZM60.74,9.29c-1.46.21-3.53-.25-4.85-1.09.97-.96,3.01-1.16,3.91-.48.59.45.95,1.06.94,1.57ZM55.68,8.77c1.52.67,3.51,1.02,4.72,1.07-.54.57-1.21,1-2.68.71-1.1-.22-1.94-1.02-2.04-1.78ZM10.99,7.17c.43-.72,1.49-1.85.59-3.52-.35-.65-.98-1.25-1.98-1.7-.22-.1-1.22-.44-1.56-.76.09.64-.31,2.29-.01,3.45.18.72.84,1.71,1.42,2.19-.59.19-2.37-2.89-5.25-2.83-1.28.02-2.28.85-2.91,1.19-.01,0-.03.01-.05.02-.25.13-.48.22-.68.19.49.6.96,1.54,1.65,2.27.44.47.97.86,1.64,1.02,3.07.75,4.05-1.32,5.69-.87-1.19.2-2.23.85-2.83,1.42-.53.49-.83,1.06-.89,1.67-.15,1.28.38,2.3.4,2.56.47-.41,2.35.18,4.01-1.82.47-.57,1.35-2.65.48-3.82,1.34.12,3.02,0,3.48-.31.19-.38.36-.69.67-1.11-1.01.4-2.06.93-3.86.75ZM1.9,6.12c1.04.73,4.49,1.56,5.92,1.43-.84.44-2.35,1.22-3.85.73-.92-.3-1.69-1.53-2.07-2.15ZM8.51,7.03c-2.19.2-4.93-.41-6.57-1.28.39-.36,1.41-1.15,2.3-1.22,1.85-.14,3.9,2,4.27,2.5ZM7.34,12.6c.9-.81,2.22-2.35,2.96-3.83.4.65.26,1.81-.45,2.67-.95,1.16-1.74,1.26-2.52,1.16ZM9.78,8.46c-.49,1.49-1.8,3.16-3.06,3.92-.33-.38-.44-1.09-.27-1.81.26-1.1,1.97-2.24,3.33-2.11ZM8.55,2.5c1.21,1.26,1.7,2.54,1.57,4.07-.59-.33-1.28-1.19-1.52-1.91-.24-.75-.18-1.53-.05-2.16ZM10.58,6.33c-.12-1.19-.44-2.56-1.47-3.89.68.19,1.57.55,2.07,1.44.53.92.09,1.92-.6,2.45ZM19.25,22.79c.73.2,1.91.18,2.61-.08,1.12-.42,2.25-1.68,2.83-1.97-.46-.1-1.31-.72-1.52-.85-.94-.57-1.79-.74-2.52-.66-1.88.21-2.21,1.72-2.56,2.48-1.03-1.02-1.51-2.64-1.72-3.84-.19.36-.37,1.12-.44,1.43.08,1.05.85,2,1.64,2.71.31.29.73.82,1.06,1.5.37.77-.11,2.85,2.25,4.95.52.46,1.13.67,1.77.76,1,.15,2.04,0,2.81.07-.14-.15-.19-.39-.23-.67,0-.02,0-.03,0-.05-.08-.72.03-2.01-.67-3.07-1.59-2.4-5.12-2.12-5.31-2.71ZM19.62,23.67c.62.02,3.55.49,4.49,2.09.44.77.39,2.06.31,2.58-1.65-.85-3.72-2.76-4.79-4.68ZM19.58,24.53c.71,1.26,3.35,3.62,4.54,4.06-.72.05-2.18.11-2.95-.48-1.26-.96-1.48-2.64-1.6-3.58ZM23.06,20.57c-1.67-.1-2.99.42-4.03,1,.04-.87.62-1.79,1.67-1.88,1.01-.09,1.82.43,2.36.88ZM19.08,22.08c1.19-.98,2.52-1.31,4.24-1.02-.44.46-1.05.96-1.81,1.18-.73.22-1.83.14-2.44-.16ZM46.38,11.03c-.34.29-1.26.5-1.83.67.95.57,2.27-.17,3.02.04-.6.59-1.91,1.4-1.47,3.25.17.72.62,1.46,1.48,2.15.19.15,1.07.73,1.31,1.14.07-.64.88-2.13.9-3.33,0-.75-.37-1.86-.81-2.48.62-.03,1.55,3.4,4.35,4.08,1.24.3,2.42-.23,3.12-.41.02,0,.03,0,.05-.01.28-.07.52-.09.71-.01-.32-.7-.54-1.73-1.01-2.62-.3-.57-.71-1.08-1.32-1.41-2.78-1.51-4.57-.35-5.42-.44-.76-.08-1.37-.36-1.77-.49-.4-.13-.99-.18-1.3-.12ZM56.09,15.08c-.82-.97-3.94-2.66-5.36-2.9.93-.21,2.58-.58,3.91.29.81.53,1.25,1.91,1.45,2.61ZM49.94,12.51c2.17.37,4.66,1.66,6.02,2.93-.47.25-1.66.75-2.53.59-1.83-.34-3.26-2.94-3.49-3.52ZM48.26,12.54c.48.47.94,1.47.98,2.24.04.79-.22,1.53-.5,2.1-.85-1.53-.99-2.89-.47-4.34ZM47.76,12.66c-.19,1.18-.23,2.59.43,4.13-.61-.36-1.38-.94-1.63-1.92-.27-1.02.4-1.88,1.2-2.21ZM0,71.19c.77.08,1.77.41,2.77.45.64.03,1.29-.07,1.88-.42,2.71-1.63,1.95-3.79,3.43-4.62-.7.98-.98,2.17-1.01,3-.03.72.16,1.34.54,1.81.8,1.01,1.89,1.36,2.08,1.53.05-.62,1.8-1.53,1.57-4.11-.06-.73-.9-2.83-2.34-3.05,1.04-.86,2.52-2.46,2.29-4.13-.12-.28-.48-.99-.73-1.19.19,1.43-.63,3.81-1.83,4.63-.2-.82-.24-2.36-2.05-2.91-.71-.22-1.58-.21-2.6.18-.23.09-1.17.55-1.65.56.52.39,1.39,1.84,2.42,2.46.64.38,1.8.62,2.55.56-.29.55-3.71-.39-5.72,1.68-.89.92-1.02,2.2-1.23,2.9,0,.02-.01.03-.02.05-.08.27-.18.49-.35.62ZM9.28,66.71c.74.19,1.46,1.1,1.56,2.21.14,1.49-.35,2.12-.98,2.6.07-1.21-.08-3.23-.59-4.81ZM8.69,66.85c.7,1.4.94,3.51.59,4.94-.5-.04-1.08-.46-1.46-1.1-.59-.96-.18-2.97.88-3.84ZM3.98,63.06c.62-.35,1.51-.71,2.49-.43,1.02.28,1.41,1.3,1.3,2.16-.92-.76-2.12-1.51-3.78-1.72ZM7.61,65.28c-.65.18-1.74.06-2.42-.29-.7-.37-1.2-.97-1.56-1.5,1.75.04,3,.61,3.98,1.79ZM1.45,70.74c1.25-.22,4.28-2.05,5.21-3.15-.29.91-.81,2.52-2.23,3.23-.86.43-2.28.11-2.98-.07ZM1.21,70.45c.02-.53.2-1.81.78-2.48,1.22-1.41,4.18-1.33,4.8-1.23-1.41,1.69-3.79,3.18-5.58,3.71ZM47.3,8.33c.28-.22.69-.5,1.01-.63-1.48-.87-5.16-2.5-7.1-3.03-.55-.15-.88-.85-1.1-.79-.55.16-1.28.36-1.86.28-4.69-.65-9.95-.16-14.52,2.13-1.42.71-3.23,2.02-4.67,3.52-.32.33-1.32.28-1.23.57.09.32-.05,1.03-.34,1.44-1.83,2.59-3.29,5.99-3.76,10.27.32-.09.76-.06,1.07.09.92-8.26,5.58-13.25,9.37-15.15.87-.44,1.79-.81,2.72-1.11.32-.1,1.18-.04,1.41.16.22.19.4-.69.73-.76,4.66-1.05,9.61-.59,13.73.83.24.08.68.58.77.81.11.27.64-.29.84-.21,1.17.48,1.96.94,2.93,1.57ZM15.59,42.61c-.12-.19-.07-.83-.17-1.08-.09-.25-.67-.03-.88-.28-.41-.38-1.32-1.16-1.83-1.39-.03.41-.32.85-.38,1.17,1.42.13,3.6,3.05,4.13,5.4.07.33-.48.79-.25,1.01.22.22.64.46.76.85.22.76.22,1.77-.06,2.43.41-.13.69.03.92.13.55-2.13-.65-5.75-2.23-8.23ZM12.46,51c-2.11-4.17-1.16-9.09-.57-11.08.18-.62.52-1.46.65-2.15.06-.3.65-.62.8-.88.16-.28-.49-.78-.47-1.04.03-.54-.13-1.2-.25-1.7-.25.22-.74.53-1.01.69.34,1.22-.03,2.98-.52,4.64-.36,1.22-.69,2.7-.79,4.36-.02.27-.7.61-.49.79.19.16.46.57.47.85.07,1.95.49,4.08,1.52,6.31.13-.32.38-.69.66-.79ZM29.26,3.75c.38-.06.88-.21,1.45-.29-1.12-.98-2.73-1.37-4.67-1.35-.24,0-.63-.61-.8-.44-.22.22-.53.45-.82.48-2.67.33-5.56,1.41-7.32,2.86-2.27,1.88-4.05,4.75-4.09,7.87,0,.27-.68.77-.46.93.21.15.61.65.65.84.17.74.5,1.64.84,2.13.17-.42.38-.88.5-1.24-2.02-4.57,1.5-8.33,3.2-9.74.76-.63,1.59-1.17,2.47-1.6.23-.12.86.04,1.07.13.25.11.27-.71.59-.82,2.31-.79,5.81-.97,7.39.25ZM31,5.77c.6,1.11,1.65,2.23,2.95,3.18.24.17.64,1.25.92,1.09.25-.15.69-.2.86-.11,1.11.61,2.54,1.2,4.24,1.37,4.37.43,9.21-1.62,11.31-4.19-.19-.25-.38-.69-.48-.95-1.68,2.42-6.48,4.73-10.52,4.33-.25-.02-.57-.78-.8-.55-.17.17-.62.31-.85.26-2.96-.73-5.37-2.72-6.43-4.65-.34.06-.84.08-1.2.21Z"/><path d="M55.34,73.09l-13.4-36.06v30c0,2.7,1.03,4.14,4.05,4.14h1.42v1.92h-12.77v-1.92h1.43c2.91,0,4.05-1.32,4.05-4.14v-31.62c0-4.14-3.65-4.14-5.47-4.14v-1.98h11.8l12.26,33,10.83-33h14.08v1.98h-2c-3.31,0-4.05,1.5-4.05,4.14v31.62c0,2.82,1.14,4.14,4.05,4.14h2v1.92h-18.7v-1.92h1.94c3.02,0,4.1-1.38,4.1-4.14V30.91l-13.8,42.18h-1.82Z"/><path d="M107.07,74.23c-2.05,0-3.93-1.2-4.79-3.18-1.54,1.2-4.05,3.18-8.21,3.18-5.13,0-6.96-3.54-6.96-6.24,0-1.2.29-2.76,1.94-4.8,3.65-4.38,9.29-5.88,13-6.78v-7.56c0-1.02-.11-3.66-3.36-3.66s-3.36,2.58-3.42,3.48c-.11,1.68-.34,4.62-3.65,4.62-2.22,0-3.59-1.68-3.59-3.48,0-1.5.85-2.7,1.48-3.36,2.68-2.88,8.38-2.88,9.35-2.88,1.31,0,6.73.3,8.27,2.7.8,1.26.8,4.32.8,4.62v15.72c0,2.04.23,4.2,2.22,4.2,1.14,0,1.77-.66,2.22-1.08l.68.48c-2.11,4.02-5.64,4.02-5.99,4.02ZM102.05,58.09c-2.11.9-8.32,3.6-8.32,9.18,0,3.54,3.31,3.78,4.33,3.78,1.14,0,2.74-.36,3.99-1.44v-11.52Z"/><path d="M132.49,73.09v-2.46c-.63.9-2.51,3.6-6.96,3.6-7.3,0-11.23-7.86-11.23-15.42,0-8.16,4.5-15.24,12.03-15.24,2.96,0,4.62,1.2,6.16,2.46v-11.52c0-1.32-.68-2.46-2.22-2.46-1.03,0-1.71.3-2.85.72l-.46-1.38,11.57-3.18v39.96c0,2.04.85,3,3.02,3h1.65v1.92h-10.72ZM132.49,48.19c-.8-.9-1.94-2.04-4.5-2.04-5.87,0-7.35,7.68-7.35,12.96,0,7.08,2.79,12.06,6.95,12.06,2.51,0,3.93-1.62,4.9-2.76v-20.22Z"/><path d="M156.93,74.23c-7.01,0-12.83-5.82-12.83-14.7s5.99-15.96,12.54-15.96c3.19,0,5.47,1.68,6.78,3.12,3.71,4.14,4.05,8.7,4.16,10.62h-17.27c-.34,10.08,4.39,13.86,8.32,13.86s7.18-4.2,8.49-5.94l1.37,1.14c-1.42,2.34-4.73,7.86-11.57,7.86ZM156.65,45.55c-5.19,0-5.93,7.02-6.21,9.84h11c-.06-3.48-.23-9.84-4.79-9.84Z"/><path d="M180.1,30.37l9.86-2.16v17.94c3.25-2.58,5.99-2.58,6.67-2.58,6.5,0,11.57,6.54,11.57,14.88s-5.47,15.78-12.03,15.78c-3.19,0-5.19-1.5-7.13-3l-3.99,3h-.97v-40.08c0-.66-.17-2.58-1.77-2.58-.68,0-1.2.18-1.94.36l-.28-1.56ZM189.97,69.07c1.94,2.22,4.45,2.28,5.02,2.28,3.14,0,6.61-3.36,6.61-12.66,0-7.14-2.74-12.18-6.84-12.18-.74,0-2.57.12-4.79,2.28v20.28Z"/><path d="M237.55,46.69c-2.68,0-3.76,2.76-4.45,4.62l-9.06,23.64c-1.77,4.62-5.42,7.92-9.35,7.92-2.39,0-4.5-1.68-4.5-4.32,0-2.46,1.71-4.14,3.88-4.14,2.34,0,2.91,1.5,3.53,3.06.29.72.74.9,1.03.9,1.54,0,3.25-3.12,3.99-4.86l.4-.96-9.12-21.9c-1.31-3.12-2.39-3.96-4.05-3.96h-.91v-1.98h14.31v1.98h-1.42c-1.54,0-1.88.72-1.88,1.98,0,.48.17,1.5.51,2.34l5.59,13.5,5.07-13.2c.46-1.2.46-2.16.46-2.46,0-1.32-1.14-2.16-2.34-2.16h-2.05v-1.98h11.29v1.98h-.91Z"/><path d="M277.53,73.09l-10.26-21.24h-5.02v15.18c0,2.76,1.03,4.14,4.05,4.14h1.82v1.92h-18.41v-1.92h1.82c2.85,0,4.05-1.2,4.05-4.14v-31.62c0-2.7-.97-4.14-4.05-4.14h-1.82v-1.98h22.46c8.84,0,13.85,4.08,13.85,10.56,0,3.66-1.77,6.42-3.76,8.16-2.68,2.34-5.24,2.94-7.58,3.48l6.78,14.04c2.39,4.92,4.33,5.64,6.61,5.64h.8v1.92h-11.34ZM270.29,31.27h-3.99c-3.14,0-4.05,1.26-4.05,4.14v14.52h8.04c5.93,0,8.38-4.56,8.38-10.14s-2.91-8.52-8.38-8.52Z"/><path d="M311.67,74.23c-2.05,0-3.93-1.2-4.79-3.18-1.54,1.2-4.05,3.18-8.21,3.18-5.13,0-6.96-3.54-6.96-6.24,0-1.2.29-2.76,1.94-4.8,3.65-4.38,9.29-5.88,13-6.78v-7.56c0-1.02-.11-3.66-3.36-3.66s-3.36,2.58-3.42,3.48c-.11,1.68-.34,4.62-3.65,4.62-2.22,0-3.59-1.68-3.59-3.48,0-1.5.85-2.7,1.48-3.36,2.68-2.88,8.38-2.88,9.35-2.88,1.31,0,6.73.3,8.27,2.7.8,1.26.8,4.32.8,4.62v15.72c0,2.04.23,4.2,2.22,4.2,1.14,0,1.77-.66,2.22-1.08l.68.48c-2.11,4.02-5.64,4.02-5.99,4.02ZM306.66,58.09c-2.11.9-8.32,3.6-8.32,9.18,0,3.54,3.31,3.78,4.33,3.78,1.14,0,2.74-.36,3.99-1.44v-11.52Z"/><path d="M317.43,30.37l9.86-2.16v17.94c3.25-2.58,5.99-2.58,6.67-2.58,6.5,0,11.57,6.54,11.57,14.88s-5.47,15.78-12.03,15.78c-3.19,0-5.19-1.5-7.13-3l-3.99,3h-.97v-40.08c0-.66-.17-2.58-1.77-2.58-.68,0-1.2.18-1.94.36l-.29-1.56ZM327.3,69.07c1.94,2.22,4.45,2.28,5.02,2.28,3.14,0,6.61-3.36,6.61-12.66,0-7.14-2.74-12.18-6.84-12.18-.74,0-2.56.12-4.79,2.28v20.28Z"/><path d="M345.07,30.37l9.86-2.16v17.94c3.25-2.58,5.99-2.58,6.67-2.58,6.5,0,11.57,6.54,11.57,14.88s-5.47,15.78-12.03,15.78c-3.19,0-5.19-1.5-7.13-3l-3.99,3h-.97v-40.08c0-.66-.17-2.58-1.77-2.58-.68,0-1.2.18-1.94.36l-.28-1.56ZM354.93,69.07c1.94,2.22,4.45,2.28,5.02,2.28,3.14,0,6.61-3.36,6.61-12.66,0-7.14-2.74-12.18-6.84-12.18-.74,0-2.57.12-4.79,2.28v20.28Z"/><path d="M374.34,71.17h2.05c1.82,0,2.85-1.38,2.85-3.24v-17.76c0-1.32-.34-3-2.11-3-.17,0-.97,0-2,.36l-.34-1.5,10.32-2.46v24.36c0,2.1.85,3.24,3.08,3.24h1.82v1.92h-15.68v-1.92ZM386.2,32.47c0,2.34-1.77,4.26-4.05,4.26s-4.05-1.92-4.05-4.26,1.88-4.26,4.05-4.26,4.05,1.86,4.05,4.26Z"/><path d="M389.84,46.69v-1.98c7.7-.48,8.61-6.84,8.61-7.56v-2.34h1.77v9.9h7.87v1.98h-7.87v19.98c0,3.48,2,4.14,3.19,4.14,1.54,0,2.85-1.2,4.16-2.52l1.2,1.38c-1.94,2.1-4.22,4.56-7.98,4.56-4.1,0-6.44-2.88-6.44-7.56v-19.98h-4.5Z"/><path d="M422.9,74.23c-1.08,0-2.17-.18-3.31-.48-.4-.12-2.91-.72-3.19-.72-1.31,0-2.74.78-3.48,1.2l-2.96-9.54,2.11-.84c.91,2.1,1.48,3,2.51,4.14,1.82,1.92,4.79,3.66,7.98,3.66,2.17,0,4.56-1.32,4.56-4.02,0-2.04-.63-3-7.3-6.48-5.24-2.7-8.04-5.28-8.04-9.54,0-3.84,2.57-8.04,7.75-8.04.85,0,1.6.12,3.36.66,1.48.48,1.94.48,2.51.48.51,0,1.88,0,3.42-1.14l2.45,9.24-1.65.6c-.8-1.92-3.25-7.74-9.41-7.74-2.45,0-3.93,1.14-3.93,3.48,0,1.8.68,3,6.56,6,6.73,3.48,8.84,5.82,8.84,10.08,0,6-4.56,9-8.78,9Z"/></g></svg>