<svg xmlns="http://www.w3.org/2000/svg" width="50" height="50" viewBox="0 0 1024 1024"><defs><style>.cls-1{fill:#1877f2;}.cls-2{fill:#fff;}</style></defs><title>Facebook</title><g><path class="cls-1" d="M1024,512C1024,229.23,794.77,0,512,0S0,229.23,0,512c0,255.554,187.231,467.37,432,505.7778V660H302V512H432V399.2C432,270.88,508.4385,200,625.3892,200,681.4077,200,740,210,740,210V336H675.4371C611.8351,336,592,375.4667,592,415.9573V512H734L711.3,660H592v357.7778C836.769,979.37,1024,767.554,1024,512Z"/><path class="cls-2" d="M711.3,660,734,512H592V415.9573C592,375.4667,611.8351,336,675.4371,336H740V210s-58.5923-10-114.6108-10C508.4385,200,432,270.88,432,399.2V512H302V660H432v357.7778a517.3987,517.3987,0,0,0,160,0V660Z"/></g></svg>
