<svg xmlns="http://www.w3.org/2000/svg" width="50" height="50" viewBox="0 0 400 400"><defs><style>.cls-1{fill:#1da1f2;}.cls-2{fill:#fff;}</style></defs><title>Twitter</title><g><g><g><circle class="cls-1" cx="200" cy="200" r="200"/></g><g><path class="cls-2" d="M163.2,305.5c88.7,0,137.2-73.5,137.2-137.2,0-2.1,0-4.2-.1-6.2a98.7892,98.7892,0,0,0,24.1-25,97.8715,97.8715,0,0,1-27.7,7.6A48.1928,48.1928,0,0,0,317.9,118a97.6476,97.6476,0,0,1-30.6,11.7,48.2476,48.2476,0,0,0-83.4,33,44.19,44.19,0,0,0,1.3,11,136.7932,136.7932,0,0,1-99.4-50.4,48.1969,48.1969,0,0,0,15,64.3,47.3678,47.3678,0,0,1-21.8-6v.6a48.2726,48.2726,0,0,0,38.7,47.3,48.07,48.07,0,0,1-12.7,1.7,46.0385,46.0385,0,0,1-9.1-.9,48.1469,48.1469,0,0,0,45,33.5A96.9312,96.9312,0,0,1,101,284.4a87.6837,87.6837,0,0,1-11.5-.7,134.3463,134.3463,0,0,0,73.7,21.8"/></g></g></g></svg>
